<mxfile host="app.diagrams.net" modified="2021-07-29T04:06:00.317Z" agent="5.0 (Windows NT 10.0; Win64; x64) AppleWebKit/537.36 (KHTML, like Gecko) Chrome/92.0.4515.107 Safari/537.36" etag="K4KFLL12bgeRUVwlFthn" version="14.9.2" type="github" pages="2">
  <diagram id="BVTHZ3YNQ86qdFeTzBhQ" name="Page-1">
    <mxGraphModel dx="1183" dy="635" grid="1" gridSize="10" guides="1" tooltips="1" connect="1" arrows="1" fold="1" page="1" pageScale="1" pageWidth="827" pageHeight="1169" math="0" shadow="0">
      <root>
        <mxCell id="0" />
        <mxCell id="1" parent="0" />
        <mxCell id="jMd3SuAJ0CYW9EHcHWBj-9" value="&lt;&lt;value object&gt;&gt;&#xa;Address" style="swimlane;fontStyle=0;childLayout=stackLayout;horizontal=1;startSize=26;fillColor=none;horizontalStack=0;resizeParent=1;resizeParentMax=0;resizeLast=0;collapsible=1;marginBottom=0;" vertex="1" parent="1">
          <mxGeometry x="70" y="410" width="140" height="104" as="geometry" />
        </mxCell>
        <mxCell id="jMd3SuAJ0CYW9EHcHWBj-10" value="address: String" style="text;strokeColor=none;fillColor=none;align=left;verticalAlign=top;spacingLeft=4;spacingRight=4;overflow=hidden;rotatable=0;points=[[0,0.5],[1,0.5]];portConstraint=eastwest;" vertex="1" parent="jMd3SuAJ0CYW9EHcHWBj-9">
          <mxGeometry y="26" width="140" height="26" as="geometry" />
        </mxCell>
        <mxCell id="jMd3SuAJ0CYW9EHcHWBj-11" value="addressDetail: String" style="text;strokeColor=none;fillColor=none;align=left;verticalAlign=top;spacingLeft=4;spacingRight=4;overflow=hidden;rotatable=0;points=[[0,0.5],[1,0.5]];portConstraint=eastwest;" vertex="1" parent="jMd3SuAJ0CYW9EHcHWBj-9">
          <mxGeometry y="52" width="140" height="26" as="geometry" />
        </mxCell>
        <mxCell id="jMd3SuAJ0CYW9EHcHWBj-12" value="zipCode: String" style="text;strokeColor=none;fillColor=none;align=left;verticalAlign=top;spacingLeft=4;spacingRight=4;overflow=hidden;rotatable=0;points=[[0,0.5],[1,0.5]];portConstraint=eastwest;" vertex="1" parent="jMd3SuAJ0CYW9EHcHWBj-9">
          <mxGeometry y="78" width="140" height="26" as="geometry" />
        </mxCell>
        <mxCell id="jMd3SuAJ0CYW9EHcHWBj-24" style="edgeStyle=orthogonalEdgeStyle;rounded=0;orthogonalLoop=1;jettySize=auto;html=1;exitX=1;exitY=0.5;exitDx=0;exitDy=0;" edge="1" parent="jMd3SuAJ0CYW9EHcHWBj-9" source="jMd3SuAJ0CYW9EHcHWBj-12" target="jMd3SuAJ0CYW9EHcHWBj-12">
          <mxGeometry relative="1" as="geometry" />
        </mxCell>
        <mxCell id="jMd3SuAJ0CYW9EHcHWBj-13" value="&lt;&lt;entity&gt;&gt;&#xa;PetInfo" style="swimlane;fontStyle=0;childLayout=stackLayout;horizontal=1;startSize=26;fillColor=none;horizontalStack=0;resizeParent=1;resizeParentMax=0;resizeLast=0;collapsible=1;marginBottom=0;" vertex="1" parent="1">
          <mxGeometry x="390" y="400" width="140" height="286" as="geometry" />
        </mxCell>
        <mxCell id="jMd3SuAJ0CYW9EHcHWBj-14" value="petId: Long" style="text;strokeColor=none;fillColor=none;align=left;verticalAlign=top;spacingLeft=4;spacingRight=4;overflow=hidden;rotatable=0;points=[[0,0.5],[1,0.5]];portConstraint=eastwest;" vertex="1" parent="jMd3SuAJ0CYW9EHcHWBj-13">
          <mxGeometry y="26" width="140" height="26" as="geometry" />
        </mxCell>
        <mxCell id="jMd3SuAJ0CYW9EHcHWBj-43" value="name: String" style="text;strokeColor=none;fillColor=none;align=left;verticalAlign=top;spacingLeft=4;spacingRight=4;overflow=hidden;rotatable=0;points=[[0,0.5],[1,0.5]];portConstraint=eastwest;" vertex="1" parent="jMd3SuAJ0CYW9EHcHWBj-13">
          <mxGeometry y="52" width="140" height="26" as="geometry" />
        </mxCell>
        <mxCell id="jMd3SuAJ0CYW9EHcHWBj-15" value="age: String" style="text;strokeColor=none;fillColor=none;align=left;verticalAlign=top;spacingLeft=4;spacingRight=4;overflow=hidden;rotatable=0;points=[[0,0.5],[1,0.5]];portConstraint=eastwest;" vertex="1" parent="jMd3SuAJ0CYW9EHcHWBj-13">
          <mxGeometry y="78" width="140" height="26" as="geometry" />
        </mxCell>
        <mxCell id="jMd3SuAJ0CYW9EHcHWBj-16" value="size: String " style="text;strokeColor=none;fillColor=none;align=left;verticalAlign=top;spacingLeft=4;spacingRight=4;overflow=hidden;rotatable=0;points=[[0,0.5],[1,0.5]];portConstraint=eastwest;" vertex="1" parent="jMd3SuAJ0CYW9EHcHWBj-13">
          <mxGeometry y="104" width="140" height="26" as="geometry" />
        </mxCell>
        <mxCell id="jMd3SuAJ0CYW9EHcHWBj-27" value="sort: String " style="text;strokeColor=none;fillColor=none;align=left;verticalAlign=top;spacingLeft=4;spacingRight=4;overflow=hidden;rotatable=0;points=[[0,0.5],[1,0.5]];portConstraint=eastwest;" vertex="1" parent="jMd3SuAJ0CYW9EHcHWBj-13">
          <mxGeometry y="130" width="140" height="26" as="geometry" />
        </mxCell>
        <mxCell id="jMd3SuAJ0CYW9EHcHWBj-28" value="sex: String " style="text;strokeColor=none;fillColor=none;align=left;verticalAlign=top;spacingLeft=4;spacingRight=4;overflow=hidden;rotatable=0;points=[[0,0.5],[1,0.5]];portConstraint=eastwest;" vertex="1" parent="jMd3SuAJ0CYW9EHcHWBj-13">
          <mxGeometry y="156" width="140" height="26" as="geometry" />
        </mxCell>
        <mxCell id="jMd3SuAJ0CYW9EHcHWBj-29" value="favoFood: String " style="text;strokeColor=none;fillColor=none;align=left;verticalAlign=top;spacingLeft=4;spacingRight=4;overflow=hidden;rotatable=0;points=[[0,0.5],[1,0.5]];portConstraint=eastwest;" vertex="1" parent="jMd3SuAJ0CYW9EHcHWBj-13">
          <mxGeometry y="182" width="140" height="26" as="geometry" />
        </mxCell>
        <mxCell id="jMd3SuAJ0CYW9EHcHWBj-30" value="character: String " style="text;strokeColor=none;fillColor=none;align=left;verticalAlign=top;spacingLeft=4;spacingRight=4;overflow=hidden;rotatable=0;points=[[0,0.5],[1,0.5]];portConstraint=eastwest;" vertex="1" parent="jMd3SuAJ0CYW9EHcHWBj-13">
          <mxGeometry y="208" width="140" height="26" as="geometry" />
        </mxCell>
        <mxCell id="jMd3SuAJ0CYW9EHcHWBj-31" value="createDt: Date " style="text;strokeColor=none;fillColor=none;align=left;verticalAlign=top;spacingLeft=4;spacingRight=4;overflow=hidden;rotatable=0;points=[[0,0.5],[1,0.5]];portConstraint=eastwest;" vertex="1" parent="jMd3SuAJ0CYW9EHcHWBj-13">
          <mxGeometry y="234" width="140" height="26" as="geometry" />
        </mxCell>
        <mxCell id="jMd3SuAJ0CYW9EHcHWBj-32" value="updateDt: Date " style="text;strokeColor=none;fillColor=none;align=left;verticalAlign=top;spacingLeft=4;spacingRight=4;overflow=hidden;rotatable=0;points=[[0,0.5],[1,0.5]];portConstraint=eastwest;" vertex="1" parent="jMd3SuAJ0CYW9EHcHWBj-13">
          <mxGeometry y="260" width="140" height="26" as="geometry" />
        </mxCell>
        <mxCell id="jMd3SuAJ0CYW9EHcHWBj-35" style="edgeStyle=orthogonalEdgeStyle;rounded=0;orthogonalLoop=1;jettySize=auto;html=1;" edge="1" parent="1" source="jMd3SuAJ0CYW9EHcHWBj-17" target="jMd3SuAJ0CYW9EHcHWBj-9">
          <mxGeometry relative="1" as="geometry" />
        </mxCell>
        <mxCell id="jMd3SuAJ0CYW9EHcHWBj-42" style="edgeStyle=orthogonalEdgeStyle;rounded=0;orthogonalLoop=1;jettySize=auto;html=1;entryX=0.5;entryY=0;entryDx=0;entryDy=0;" edge="1" parent="1" source="jMd3SuAJ0CYW9EHcHWBj-17" target="jMd3SuAJ0CYW9EHcHWBj-38">
          <mxGeometry relative="1" as="geometry" />
        </mxCell>
        <mxCell id="jMd3SuAJ0CYW9EHcHWBj-17" value="&lt;&lt;entity&gt;&gt;&#xa;PetOwner" style="swimlane;fontStyle=0;childLayout=stackLayout;horizontal=1;startSize=26;fillColor=none;horizontalStack=0;resizeParent=1;resizeParentMax=0;resizeLast=0;collapsible=1;marginBottom=0;" vertex="1" parent="1">
          <mxGeometry x="230" y="90" width="140" height="312" as="geometry" />
        </mxCell>
        <mxCell id="jMd3SuAJ0CYW9EHcHWBj-18" value="ownerId: Long" style="text;strokeColor=none;fillColor=none;align=left;verticalAlign=top;spacingLeft=4;spacingRight=4;overflow=hidden;rotatable=0;points=[[0,0.5],[1,0.5]];portConstraint=eastwest;" vertex="1" parent="jMd3SuAJ0CYW9EHcHWBj-17">
          <mxGeometry y="26" width="140" height="26" as="geometry" />
        </mxCell>
        <mxCell id="jMd3SuAJ0CYW9EHcHWBj-19" value="name: String" style="text;strokeColor=none;fillColor=none;align=left;verticalAlign=top;spacingLeft=4;spacingRight=4;overflow=hidden;rotatable=0;points=[[0,0.5],[1,0.5]];portConstraint=eastwest;" vertex="1" parent="jMd3SuAJ0CYW9EHcHWBj-17">
          <mxGeometry y="52" width="140" height="26" as="geometry" />
        </mxCell>
        <mxCell id="jMd3SuAJ0CYW9EHcHWBj-20" value="gender: String" style="text;strokeColor=none;fillColor=none;align=left;verticalAlign=top;spacingLeft=4;spacingRight=4;overflow=hidden;rotatable=0;points=[[0,0.5],[1,0.5]];portConstraint=eastwest;" vertex="1" parent="jMd3SuAJ0CYW9EHcHWBj-17">
          <mxGeometry y="78" width="140" height="26" as="geometry" />
        </mxCell>
        <mxCell id="jMd3SuAJ0CYW9EHcHWBj-33" value="email: String" style="text;strokeColor=none;fillColor=none;align=left;verticalAlign=top;spacingLeft=4;spacingRight=4;overflow=hidden;rotatable=0;points=[[0,0.5],[1,0.5]];portConstraint=eastwest;" vertex="1" parent="jMd3SuAJ0CYW9EHcHWBj-17">
          <mxGeometry y="104" width="140" height="26" as="geometry" />
        </mxCell>
        <mxCell id="jMd3SuAJ0CYW9EHcHWBj-34" value="phone: String" style="text;strokeColor=none;fillColor=none;align=left;verticalAlign=top;spacingLeft=4;spacingRight=4;overflow=hidden;rotatable=0;points=[[0,0.5],[1,0.5]];portConstraint=eastwest;" vertex="1" parent="jMd3SuAJ0CYW9EHcHWBj-17">
          <mxGeometry y="130" width="140" height="26" as="geometry" />
        </mxCell>
        <mxCell id="jMd3SuAJ0CYW9EHcHWBj-50" value="address: String" style="text;strokeColor=none;fillColor=none;align=left;verticalAlign=top;spacingLeft=4;spacingRight=4;overflow=hidden;rotatable=0;points=[[0,0.5],[1,0.5]];portConstraint=eastwest;" vertex="1" parent="jMd3SuAJ0CYW9EHcHWBj-17">
          <mxGeometry y="156" width="140" height="26" as="geometry" />
        </mxCell>
        <mxCell id="jMd3SuAJ0CYW9EHcHWBj-51" value="spotname: String" style="text;strokeColor=none;fillColor=none;align=left;verticalAlign=top;spacingLeft=4;spacingRight=4;overflow=hidden;rotatable=0;points=[[0,0.5],[1,0.5]];portConstraint=eastwest;" vertex="1" parent="jMd3SuAJ0CYW9EHcHWBj-17">
          <mxGeometry y="182" width="140" height="26" as="geometry" />
        </mxCell>
        <mxCell id="jMd3SuAJ0CYW9EHcHWBj-21" value="authVal: String" style="text;strokeColor=none;fillColor=none;align=left;verticalAlign=top;spacingLeft=4;spacingRight=4;overflow=hidden;rotatable=0;points=[[0,0.5],[1,0.5]];portConstraint=eastwest;" vertex="1" parent="jMd3SuAJ0CYW9EHcHWBj-17">
          <mxGeometry y="208" width="140" height="26" as="geometry" />
        </mxCell>
        <mxCell id="jMd3SuAJ0CYW9EHcHWBj-26" value="profilePhoto: String" style="text;strokeColor=none;fillColor=none;align=left;verticalAlign=top;spacingLeft=4;spacingRight=4;overflow=hidden;rotatable=0;points=[[0,0.5],[1,0.5]];portConstraint=eastwest;" vertex="1" parent="jMd3SuAJ0CYW9EHcHWBj-17">
          <mxGeometry y="234" width="140" height="26" as="geometry" />
        </mxCell>
        <mxCell id="jMd3SuAJ0CYW9EHcHWBj-22" value="createDt; Date" style="text;strokeColor=none;fillColor=none;align=left;verticalAlign=top;spacingLeft=4;spacingRight=4;overflow=hidden;rotatable=0;points=[[0,0.5],[1,0.5]];portConstraint=eastwest;" vertex="1" parent="jMd3SuAJ0CYW9EHcHWBj-17">
          <mxGeometry y="260" width="140" height="26" as="geometry" />
        </mxCell>
        <mxCell id="jMd3SuAJ0CYW9EHcHWBj-23" value="updateDt: Date" style="text;strokeColor=none;fillColor=none;align=left;verticalAlign=top;spacingLeft=4;spacingRight=4;overflow=hidden;rotatable=0;points=[[0,0.5],[1,0.5]];portConstraint=eastwest;" vertex="1" parent="jMd3SuAJ0CYW9EHcHWBj-17">
          <mxGeometry y="286" width="140" height="26" as="geometry" />
        </mxCell>
        <mxCell id="jMd3SuAJ0CYW9EHcHWBj-36" style="edgeStyle=orthogonalEdgeStyle;rounded=0;orthogonalLoop=1;jettySize=auto;html=1;" edge="1" parent="1" source="jMd3SuAJ0CYW9EHcHWBj-33" target="jMd3SuAJ0CYW9EHcHWBj-13">
          <mxGeometry relative="1" as="geometry" />
        </mxCell>
        <mxCell id="jMd3SuAJ0CYW9EHcHWBj-38" value="&lt;&lt;value object&gt;&gt;&#xa;FavoCondition" style="swimlane;fontStyle=0;childLayout=stackLayout;horizontal=1;startSize=26;fillColor=none;horizontalStack=0;resizeParent=1;resizeParentMax=0;resizeLast=0;collapsible=1;marginBottom=0;" vertex="1" parent="1">
          <mxGeometry x="230" y="514" width="140" height="104" as="geometry" />
        </mxCell>
        <mxCell id="jMd3SuAJ0CYW9EHcHWBj-39" value="spotname: String" style="text;strokeColor=none;fillColor=none;align=left;verticalAlign=top;spacingLeft=4;spacingRight=4;overflow=hidden;rotatable=0;points=[[0,0.5],[1,0.5]];portConstraint=eastwest;" vertex="1" parent="jMd3SuAJ0CYW9EHcHWBj-38">
          <mxGeometry y="26" width="140" height="26" as="geometry" />
        </mxCell>
        <mxCell id="jMd3SuAJ0CYW9EHcHWBj-40" value="spotDesc: String" style="text;strokeColor=none;fillColor=none;align=left;verticalAlign=top;spacingLeft=4;spacingRight=4;overflow=hidden;rotatable=0;points=[[0,0.5],[1,0.5]];portConstraint=eastwest;" vertex="1" parent="jMd3SuAJ0CYW9EHcHWBj-38">
          <mxGeometry y="52" width="140" height="26" as="geometry" />
        </mxCell>
        <mxCell id="jMd3SuAJ0CYW9EHcHWBj-41" value="timeslot: String" style="text;strokeColor=none;fillColor=none;align=left;verticalAlign=top;spacingLeft=4;spacingRight=4;overflow=hidden;rotatable=0;points=[[0,0.5],[1,0.5]];portConstraint=eastwest;" vertex="1" parent="jMd3SuAJ0CYW9EHcHWBj-38">
          <mxGeometry y="78" width="140" height="26" as="geometry" />
        </mxCell>
        <mxCell id="jMd3SuAJ0CYW9EHcHWBj-44" value="&lt;&lt;enumeration&gt;&gt;&#xa;Gender" style="swimlane;fontStyle=0;childLayout=stackLayout;horizontal=1;startSize=26;fillColor=none;horizontalStack=0;resizeParent=1;resizeParentMax=0;resizeLast=0;collapsible=1;marginBottom=0;" vertex="1" parent="1">
          <mxGeometry x="560" y="142" width="140" height="78" as="geometry" />
        </mxCell>
        <mxCell id="jMd3SuAJ0CYW9EHcHWBj-45" value="+ male" style="text;strokeColor=none;fillColor=none;align=left;verticalAlign=top;spacingLeft=4;spacingRight=4;overflow=hidden;rotatable=0;points=[[0,0.5],[1,0.5]];portConstraint=eastwest;" vertex="1" parent="jMd3SuAJ0CYW9EHcHWBj-44">
          <mxGeometry y="26" width="140" height="26" as="geometry" />
        </mxCell>
        <mxCell id="jMd3SuAJ0CYW9EHcHWBj-46" value="+ female" style="text;strokeColor=none;fillColor=none;align=left;verticalAlign=top;spacingLeft=4;spacingRight=4;overflow=hidden;rotatable=0;points=[[0,0.5],[1,0.5]];portConstraint=eastwest;" vertex="1" parent="jMd3SuAJ0CYW9EHcHWBj-44">
          <mxGeometry y="52" width="140" height="26" as="geometry" />
        </mxCell>
        <mxCell id="jMd3SuAJ0CYW9EHcHWBj-48" value="" style="line;strokeWidth=1;fillColor=none;align=left;verticalAlign=middle;spacingTop=-1;spacingLeft=3;spacingRight=3;rotatable=0;labelPosition=right;points=[];portConstraint=eastwest;" vertex="1" parent="1">
          <mxGeometry x="370" y="150" width="190" height="30" as="geometry" />
        </mxCell>
      </root>
    </mxGraphModel>
  </diagram>
  <diagram id="yHz07OafkJ13oYYHnYcs" name="Page-2">
    <mxGraphModel dx="1420" dy="762" grid="1" gridSize="10" guides="1" tooltips="1" connect="1" arrows="1" fold="1" page="1" pageScale="1" pageWidth="1654" pageHeight="2336" math="0" shadow="0">
      <root>
        <mxCell id="Nw7i2hqkdpoNvESd-6Zk-0" />
        <mxCell id="Nw7i2hqkdpoNvESd-6Zk-1" parent="Nw7i2hqkdpoNvESd-6Zk-0" />
        <mxCell id="Nw7i2hqkdpoNvESd-6Zk-2" value="예약" style="html=1;" vertex="1" parent="Nw7i2hqkdpoNvESd-6Zk-1">
          <mxGeometry x="870" y="470" width="110" height="50" as="geometry" />
        </mxCell>
        <mxCell id="Nw7i2hqkdpoNvESd-6Zk-3" value="동물주" style="html=1;" vertex="1" parent="Nw7i2hqkdpoNvESd-6Zk-1">
          <mxGeometry x="630" y="470" width="110" height="50" as="geometry" />
        </mxCell>
        <mxCell id="Nw7i2hqkdpoNvESd-6Zk-4" value="동물" style="html=1;" vertex="1" parent="Nw7i2hqkdpoNvESd-6Zk-1">
          <mxGeometry x="630" y="600" width="110" height="50" as="geometry" />
        </mxCell>
        <mxCell id="Nw7i2hqkdpoNvESd-6Zk-5" value="후기" style="html=1;" vertex="1" parent="Nw7i2hqkdpoNvESd-6Zk-1">
          <mxGeometry x="870" y="600" width="110" height="50" as="geometry" />
        </mxCell>
        <mxCell id="Nw7i2hqkdpoNvESd-6Zk-6" value="모니터링" style="html=1;" vertex="1" parent="Nw7i2hqkdpoNvESd-6Zk-1">
          <mxGeometry x="1100" y="590" width="110" height="50" as="geometry" />
        </mxCell>
        <mxCell id="Nw7i2hqkdpoNvESd-6Zk-7" value="산책러" style="html=1;" vertex="1" parent="Nw7i2hqkdpoNvESd-6Zk-1">
          <mxGeometry x="870" y="300" width="110" height="50" as="geometry" />
        </mxCell>
        <mxCell id="Nw7i2hqkdpoNvESd-6Zk-8" value="결제" style="html=1;" vertex="1" parent="Nw7i2hqkdpoNvESd-6Zk-1">
          <mxGeometry x="1100" y="370" width="110" height="50" as="geometry" />
        </mxCell>
        <mxCell id="Nw7i2hqkdpoNvESd-6Zk-11" value="" style="endArrow=none;html=1;exitX=1;exitY=0.5;exitDx=0;exitDy=0;entryX=0;entryY=0.5;entryDx=0;entryDy=0;" edge="1" parent="Nw7i2hqkdpoNvESd-6Zk-1" source="Nw7i2hqkdpoNvESd-6Zk-3" target="Nw7i2hqkdpoNvESd-6Zk-2">
          <mxGeometry width="50" height="50" relative="1" as="geometry">
            <mxPoint x="760" y="530" as="sourcePoint" />
            <mxPoint x="810" y="480" as="targetPoint" />
          </mxGeometry>
        </mxCell>
        <mxCell id="Nw7i2hqkdpoNvESd-6Zk-12" value="1" style="text;html=1;strokeColor=none;fillColor=none;align=center;verticalAlign=middle;whiteSpace=wrap;rounded=0;" vertex="1" parent="Nw7i2hqkdpoNvESd-6Zk-1">
          <mxGeometry x="740" y="470" width="40" height="20" as="geometry" />
        </mxCell>
        <mxCell id="Nw7i2hqkdpoNvESd-6Zk-13" value="1" style="text;html=1;strokeColor=none;fillColor=none;align=center;verticalAlign=middle;whiteSpace=wrap;rounded=0;" vertex="1" parent="Nw7i2hqkdpoNvESd-6Zk-1">
          <mxGeometry x="750" y="480" width="40" height="20" as="geometry" />
        </mxCell>
        <mxCell id="Nw7i2hqkdpoNvESd-6Zk-14" value="1" style="text;html=1;strokeColor=none;fillColor=none;align=center;verticalAlign=middle;whiteSpace=wrap;rounded=0;" vertex="1" parent="Nw7i2hqkdpoNvESd-6Zk-1">
          <mxGeometry x="760" y="490" width="40" height="20" as="geometry" />
        </mxCell>
        <mxCell id="Nw7i2hqkdpoNvESd-6Zk-15" value="1" style="text;html=1;strokeColor=none;fillColor=none;align=center;verticalAlign=middle;whiteSpace=wrap;rounded=0;" vertex="1" parent="Nw7i2hqkdpoNvESd-6Zk-1">
          <mxGeometry x="770" y="500" width="40" height="20" as="geometry" />
        </mxCell>
        <mxCell id="Nw7i2hqkdpoNvESd-6Zk-16" value="1" style="text;html=1;strokeColor=none;fillColor=none;align=center;verticalAlign=middle;whiteSpace=wrap;rounded=0;" vertex="1" parent="Nw7i2hqkdpoNvESd-6Zk-1">
          <mxGeometry x="780" y="510" width="40" height="20" as="geometry" />
        </mxCell>
        <mxCell id="Nw7i2hqkdpoNvESd-6Zk-17" value="1" style="text;html=1;strokeColor=none;fillColor=none;align=center;verticalAlign=middle;whiteSpace=wrap;rounded=0;" vertex="1" parent="Nw7i2hqkdpoNvESd-6Zk-1">
          <mxGeometry x="730" y="560" width="40" height="20" as="geometry" />
        </mxCell>
        <mxCell id="Nw7i2hqkdpoNvESd-6Zk-18" value="" style="endArrow=none;html=1;" edge="1" parent="Nw7i2hqkdpoNvESd-6Zk-1">
          <mxGeometry width="50" height="50" relative="1" as="geometry">
            <mxPoint x="900" y="520" as="sourcePoint" />
            <mxPoint x="950" y="470" as="targetPoint" />
          </mxGeometry>
        </mxCell>
      </root>
    </mxGraphModel>
  </diagram>
</mxfile>
